# xmcd
#
# Track frame offsets:
# 150
# 9983
# 22000
# 54275
# 78853
# 94705
# 109914
# 124650
# 139505
# 152571
# 182438
# 194534
# 205922
# 222997
# 242071
# 253981
# 283156
#
# Disc length: 3998 seconds
#
#
# Revision: 5
# Processed by: cddbd v1.4PL0 Copyright (c) Steve Scherf et al.
# Submitted via: FreeRIP 2.51 
#
DISCID=e90f9c11
DTITLE=Various Artist - The Blues Box II
DYEAR=1998
DGENRE=Blues
TTITLE0=Chuck Berry - Worried life blues
TTITLE1=Otis Rush - You know my love
TTITLE2=Buddy Guy - Stone Crazy
TTITLE3=Byther Smith - Hold That Train
TTITLE4=Buddy Reed - Blues For Mud
TTITLE5=Jimmy Reed - Down At The Corner Grocery Store
TTITLE6=Bobby Bland - Stormy monday
TTITLE7=Tommy Tucker - Drunk
TTITLE8=Lowell Fulson - Do me right
TTITLE9=Luther Allison - You upset me baby
TTITLE10=Ike Turner - Prancin'
TTITLE11=Earl Hooker - The Leading Brand
TTITLE12=Matt Guitar Murphy - Taking off
TTITLE13=Big Brother and the Holding Company - Piece of my heart
TTITLE14=Bobby Bland - Ain't nothing you can do
TTITLE15=Brown Charles - These blues
TTITLE16=Alexis Korner - Hammer and nails
EXTD=
EXTT0=
EXTT1=
EXTT2=
EXTT3=
EXTT4=
EXTT5=
EXTT6=
EXTT7=
EXTT8=
EXTT9=
EXTT10=
EXTT11=
EXTT12=
EXTT13=
EXTT14=
EXTT15=
EXTT16=
PLAYORDER=
